<svg xmlns="http://www.w3.org/2000/svg" viewBox="0 0 95.988 95.988">
	<path fill="#0060DF" d="M83.344,53.956L70.617,41.23c-6.954,4.378-16.246,3.553-22.301-2.502c-7.03-7.03-7.03-18.426,0-25.456
		s18.426-7.03,25.456,0c6.055,6.055,6.88,15.347,2.502,22.301L89,48.299L83.344,53.956z M68.115,33.071
		c3.905-3.905,3.905-10.237,0-14.142s-10.237-3.905-14.142,0s-3.905,10.237,0,14.142S64.21,36.977,68.115,33.071z"/>
	<path fill="#0060DF" d="M33,58l8,9l11-14l14,19H22L33,58z"/>
	<path fill="#0060DF" d="M78.395,58.906L72,52.512V72v8h-8H24h-8v-8V32v-8h8h12.142c0.218-2.737,0.884-5.442,1.998-8H16
		c-4.418,0-8,3.581-8,8v56c0,4.419,3.582,8,8,8h56c4.418,0,8-3.581,8-8V60.511L78.395,58.906z"/>
</svg>
